<svg xmlns="http://www.w3.org/2000/svg" width="933.333" height="933.333" preserveAspectRatio="xMidYMid meet" version="1.0" viewBox="0 0 700 700"><metadata>Created by potrace 1.14, written by Peter Selinger 2001-2017</metadata><g fill="#000" stroke="none"><path d="M1312 5687 l-1312 -1312 438 -438 437 -437 875 875 875 875 875 -875 875 -875 438 438 437 437 -1313 1313 -1312 1312 -1313 -1313z" transform="translate(0.000000,700.000000) scale(0.100000,-0.100000)"/><path d="M2187 3062 l-437 -437 1313 -1313 1312 -1312 1313 1313 1312 1312 -438 438 -437 437 -875 -875 -875 -875 -875 875 -875 875 -438 -438z" transform="translate(0.000000,700.000000) scale(0.100000,-0.100000)"/></g></svg>